<mxfile host="Electron" modified="2023-06-17T16:32:26.140Z" agent="Mozilla/5.0 (Windows NT 10.0; Win64; x64) AppleWebKit/537.36 (KHTML, like Gecko) draw.io/21.4.0 Chrome/112.0.5615.204 Electron/24.5.1 Safari/537.36" etag="JOdGPR2qbiMbgyH89iPI" version="21.4.0" type="device">
  <diagram name="Page-1" id="iVIAJpsjtNyqfuqqcP6n">
    <mxGraphModel dx="1178" dy="875" grid="1" gridSize="10" guides="1" tooltips="1" connect="1" arrows="1" fold="1" page="1" pageScale="1" pageWidth="850" pageHeight="1100" math="0" shadow="0">
      <root>
        <mxCell id="0" />
        <mxCell id="1" parent="0" />
        <mxCell id="poaK0A92fAtAV2oWqRkP-4" value="" style="rounded=1;whiteSpace=wrap;html=1;sketch=1;curveFitting=1;jiggle=2;labelBackgroundColor=none;arcSize=22;" vertex="1" parent="1">
          <mxGeometry x="25" y="30" width="800" height="760" as="geometry" />
        </mxCell>
        <mxCell id="poaK0A92fAtAV2oWqRkP-1" value="Restaurant&amp;nbsp;&lt;br&gt;Patron" style="shape=umlActor;verticalLabelPosition=bottom;verticalAlign=top;html=1;outlineConnect=0;sketch=1;curveFitting=1;jiggle=2;rounded=1;labelBackgroundColor=none;" vertex="1" parent="1">
          <mxGeometry x="90" y="90" width="30" height="60" as="geometry" />
        </mxCell>
        <mxCell id="poaK0A92fAtAV2oWqRkP-2" value="Restaurant&amp;nbsp;&lt;br&gt;Employee" style="shape=umlActor;verticalLabelPosition=bottom;verticalAlign=top;html=1;outlineConnect=0;sketch=1;curveFitting=1;jiggle=2;rounded=1;labelBackgroundColor=none;" vertex="1" parent="1">
          <mxGeometry x="510" y="575" width="30" height="60" as="geometry" />
        </mxCell>
        <mxCell id="poaK0A92fAtAV2oWqRkP-46" value="" style="group;sketch=1;curveFitting=1;jiggle=2;labelBorderColor=default;rounded=1;labelBackgroundColor=none;" vertex="1" connectable="0" parent="1">
          <mxGeometry x="425" y="50" width="210" height="360" as="geometry" />
        </mxCell>
        <mxCell id="poaK0A92fAtAV2oWqRkP-16" value="" style="group;sketch=1;curveFitting=1;jiggle=2;rounded=1;labelBackgroundColor=none;" vertex="1" connectable="0" parent="poaK0A92fAtAV2oWqRkP-46">
          <mxGeometry width="210" height="360" as="geometry" />
        </mxCell>
        <mxCell id="poaK0A92fAtAV2oWqRkP-8" value="" style="rounded=1;whiteSpace=wrap;html=1;sketch=1;curveFitting=1;jiggle=2;labelBackgroundColor=none;" vertex="1" parent="poaK0A92fAtAV2oWqRkP-16">
          <mxGeometry width="210" height="360" as="geometry" />
        </mxCell>
        <mxCell id="poaK0A92fAtAV2oWqRkP-9" value="Cart" style="text;html=1;align=center;verticalAlign=middle;whiteSpace=wrap;rounded=1;labelBackgroundColor=none;sketch=1;curveFitting=1;jiggle=2;" vertex="1" parent="poaK0A92fAtAV2oWqRkP-16">
          <mxGeometry x="75" width="60" height="30" as="geometry" />
        </mxCell>
        <mxCell id="poaK0A92fAtAV2oWqRkP-6" value="Delete" style="ellipse;whiteSpace=wrap;html=1;sketch=1;curveFitting=1;jiggle=2;rounded=1;labelBackgroundColor=none;" vertex="1" parent="poaK0A92fAtAV2oWqRkP-46">
          <mxGeometry x="35" y="115" width="140" height="70" as="geometry" />
        </mxCell>
        <mxCell id="poaK0A92fAtAV2oWqRkP-7" value="Add" style="ellipse;whiteSpace=wrap;html=1;sketch=1;curveFitting=1;jiggle=2;rounded=1;labelBackgroundColor=none;" vertex="1" parent="poaK0A92fAtAV2oWqRkP-46">
          <mxGeometry x="35" y="40" width="140" height="70" as="geometry" />
        </mxCell>
        <mxCell id="poaK0A92fAtAV2oWqRkP-10" value="View" style="ellipse;whiteSpace=wrap;html=1;sketch=1;curveFitting=1;jiggle=2;rounded=1;labelBackgroundColor=none;" vertex="1" parent="poaK0A92fAtAV2oWqRkP-46">
          <mxGeometry x="35" y="190" width="140" height="70" as="geometry" />
        </mxCell>
        <mxCell id="poaK0A92fAtAV2oWqRkP-14" value="Submit" style="ellipse;whiteSpace=wrap;html=1;sketch=1;curveFitting=1;jiggle=2;rounded=1;labelBackgroundColor=none;" vertex="1" parent="poaK0A92fAtAV2oWqRkP-46">
          <mxGeometry x="35" y="270" width="140" height="70" as="geometry" />
        </mxCell>
        <mxCell id="poaK0A92fAtAV2oWqRkP-28" style="rounded=1;orthogonalLoop=1;jettySize=auto;html=1;sketch=1;curveFitting=1;jiggle=2;labelBackgroundColor=none;fontColor=default;" edge="1" parent="1" source="poaK0A92fAtAV2oWqRkP-14" target="poaK0A92fAtAV2oWqRkP-2">
          <mxGeometry relative="1" as="geometry" />
        </mxCell>
        <mxCell id="poaK0A92fAtAV2oWqRkP-22" style="rounded=1;orthogonalLoop=1;jettySize=auto;html=1;sketch=1;curveFitting=1;jiggle=2;labelBackgroundColor=none;fontColor=default;" edge="1" parent="1" source="poaK0A92fAtAV2oWqRkP-1" target="poaK0A92fAtAV2oWqRkP-7">
          <mxGeometry relative="1" as="geometry" />
        </mxCell>
        <mxCell id="poaK0A92fAtAV2oWqRkP-24" style="rounded=1;orthogonalLoop=1;jettySize=auto;html=1;sketch=1;curveFitting=1;jiggle=2;labelBackgroundColor=none;fontColor=default;" edge="1" parent="1" source="poaK0A92fAtAV2oWqRkP-1" target="poaK0A92fAtAV2oWqRkP-6">
          <mxGeometry relative="1" as="geometry" />
        </mxCell>
        <mxCell id="poaK0A92fAtAV2oWqRkP-25" style="rounded=1;orthogonalLoop=1;jettySize=auto;html=1;sketch=1;curveFitting=1;jiggle=2;labelBackgroundColor=none;fontColor=default;" edge="1" parent="1" source="poaK0A92fAtAV2oWqRkP-1" target="poaK0A92fAtAV2oWqRkP-14">
          <mxGeometry relative="1" as="geometry" />
        </mxCell>
        <mxCell id="poaK0A92fAtAV2oWqRkP-26" style="rounded=1;orthogonalLoop=1;jettySize=auto;html=1;sketch=1;curveFitting=1;jiggle=2;labelBackgroundColor=none;fontColor=default;" edge="1" parent="1" source="poaK0A92fAtAV2oWqRkP-1" target="poaK0A92fAtAV2oWqRkP-10">
          <mxGeometry relative="1" as="geometry" />
        </mxCell>
        <mxCell id="poaK0A92fAtAV2oWqRkP-47" value="Payment" style="ellipse;whiteSpace=wrap;html=1;sketch=1;curveFitting=1;jiggle=2;rounded=1;labelBackgroundColor=none;" vertex="1" parent="1">
          <mxGeometry x="630" y="480" width="140" height="70" as="geometry" />
        </mxCell>
        <mxCell id="poaK0A92fAtAV2oWqRkP-48" value="Use" style="endArrow=open;endSize=12;dashed=1;html=1;rounded=1;sketch=1;hachureGap=4;jiggle=2;curveFitting=1;fontFamily=Architects Daughter;fontSource=https%3A%2F%2Ffonts.googleapis.com%2Fcss%3Ffamily%3DArchitects%2BDaughter;fontSize=16;labelBackgroundColor=none;fontColor=default;" edge="1" parent="1" source="poaK0A92fAtAV2oWqRkP-14" target="poaK0A92fAtAV2oWqRkP-47">
          <mxGeometry width="160" relative="1" as="geometry">
            <mxPoint x="335" y="380" as="sourcePoint" />
            <mxPoint x="495" y="380" as="targetPoint" />
          </mxGeometry>
        </mxCell>
        <mxCell id="poaK0A92fAtAV2oWqRkP-49" value="" style="group" vertex="1" connectable="0" parent="1">
          <mxGeometry x="160" y="530" width="190" height="130" as="geometry" />
        </mxCell>
        <mxCell id="poaK0A92fAtAV2oWqRkP-36" value="" style="rounded=1;whiteSpace=wrap;html=1;sketch=1;curveFitting=1;jiggle=2;labelBackgroundColor=none;" vertex="1" parent="poaK0A92fAtAV2oWqRkP-49">
          <mxGeometry width="190" height="130" as="geometry" />
        </mxCell>
        <mxCell id="poaK0A92fAtAV2oWqRkP-37" value="Physical Order" style="text;html=1;align=center;verticalAlign=middle;whiteSpace=wrap;rounded=1;labelBackgroundColor=none;sketch=1;curveFitting=1;jiggle=2;" vertex="1" parent="poaK0A92fAtAV2oWqRkP-49">
          <mxGeometry x="59.84999999999999" width="80.75" height="17.727272727272727" as="geometry" />
        </mxCell>
        <mxCell id="poaK0A92fAtAV2oWqRkP-29" value="Receive" style="ellipse;whiteSpace=wrap;html=1;sketch=1;curveFitting=1;jiggle=2;rounded=1;labelBackgroundColor=none;" vertex="1" parent="1">
          <mxGeometry x="185" y="565" width="140" height="70" as="geometry" />
        </mxCell>
        <mxCell id="poaK0A92fAtAV2oWqRkP-31" value="" style="rounded=1;orthogonalLoop=1;jettySize=auto;html=1;sketch=1;curveFitting=1;jiggle=2;labelBackgroundColor=none;fontColor=default;" edge="1" parent="1" source="poaK0A92fAtAV2oWqRkP-2" target="poaK0A92fAtAV2oWqRkP-29">
          <mxGeometry relative="1" as="geometry">
            <mxPoint x="610" y="480" as="targetPoint" />
          </mxGeometry>
        </mxCell>
        <mxCell id="poaK0A92fAtAV2oWqRkP-32" style="rounded=1;orthogonalLoop=1;jettySize=auto;html=1;edgeStyle=orthogonalEdgeStyle;sketch=1;curveFitting=1;jiggle=2;labelBackgroundColor=none;fontColor=default;" edge="1" parent="1" source="poaK0A92fAtAV2oWqRkP-29" target="poaK0A92fAtAV2oWqRkP-1">
          <mxGeometry relative="1" as="geometry" />
        </mxCell>
        <mxCell id="poaK0A92fAtAV2oWqRkP-76" value="" style="group" vertex="1" connectable="0" parent="1">
          <mxGeometry x="140" y="310" width="250" height="180" as="geometry" />
        </mxCell>
        <mxCell id="poaK0A92fAtAV2oWqRkP-66" value="" style="rounded=1;whiteSpace=wrap;html=1;sketch=1;curveFitting=1;jiggle=2;labelBackgroundColor=none;" vertex="1" parent="poaK0A92fAtAV2oWqRkP-76">
          <mxGeometry width="250" height="180" as="geometry" />
        </mxCell>
        <mxCell id="poaK0A92fAtAV2oWqRkP-67" value="Restaurant" style="text;html=1;align=center;verticalAlign=middle;whiteSpace=wrap;rounded=1;labelBackgroundColor=none;sketch=1;curveFitting=1;jiggle=2;" vertex="1" parent="poaK0A92fAtAV2oWqRkP-76">
          <mxGeometry x="67.37" width="106.25000000000003" height="28.63636363636363" as="geometry" />
        </mxCell>
        <mxCell id="poaK0A92fAtAV2oWqRkP-56" value="" style="rounded=1;whiteSpace=wrap;html=1;sketch=1;curveFitting=1;jiggle=2;labelBackgroundColor=none;" vertex="1" parent="poaK0A92fAtAV2oWqRkP-76">
          <mxGeometry x="25" y="44.089999999999975" width="200" height="115.91" as="geometry" />
        </mxCell>
        <mxCell id="poaK0A92fAtAV2oWqRkP-57" value="Menu" style="text;html=1;align=center;verticalAlign=middle;whiteSpace=wrap;rounded=1;labelBackgroundColor=none;sketch=1;curveFitting=1;jiggle=2;" vertex="1" parent="poaK0A92fAtAV2oWqRkP-76">
          <mxGeometry x="82.5" y="50" width="85" height="19.09090909090909" as="geometry" />
        </mxCell>
        <mxCell id="poaK0A92fAtAV2oWqRkP-58" value="View" style="ellipse;whiteSpace=wrap;html=1;sketch=1;curveFitting=1;jiggle=2;rounded=1;labelBackgroundColor=none;" vertex="1" parent="poaK0A92fAtAV2oWqRkP-76">
          <mxGeometry x="55" y="75" width="140" height="70" as="geometry" />
        </mxCell>
        <mxCell id="poaK0A92fAtAV2oWqRkP-60" style="rounded=0;sketch=1;hachureGap=4;jiggle=2;curveFitting=1;orthogonalLoop=1;jettySize=auto;html=1;fontFamily=Architects Daughter;fontSource=https%3A%2F%2Ffonts.googleapis.com%2Fcss%3Ffamily%3DArchitects%2BDaughter;fontSize=16;" edge="1" parent="1" source="poaK0A92fAtAV2oWqRkP-1" target="poaK0A92fAtAV2oWqRkP-58">
          <mxGeometry relative="1" as="geometry" />
        </mxCell>
      </root>
    </mxGraphModel>
  </diagram>
</mxfile>
